<?xml version="1.0" standalone="no"?><!DOCTYPE svg PUBLIC "-//W3C//DTD SVG 1.1//EN" "http://www.w3.org/Graphics/SVG/1.1/DTD/svg11.dtd"><svg t="1734875790698" class="icon" viewBox="0 0 1105 1024" version="1.1" xmlns="http://www.w3.org/2000/svg" p-id="13331" xmlns:xlink="http://www.w3.org/1999/xlink" width="215.8203125" height="200"><path d="M306.331611 986.120285c20.686617 4.404328 45.066381-16.219904 63.943854-54.186958s29.407934-87.337947 27.598792-129.759236-15.670923-71.118043-36.35754-75.522371-45.066381 16.219904-63.943854 54.186958-29.407934 87.337947-27.598791 129.759236 15.658446 71.118043 36.357539 75.534847zM718.903597 868.588361c9.856711 46.351496 29.944439 86.826396 52.851935 106.190467s44.916659 14.660298 57.917536-12.327127 14.909835-72.153621 4.990739-118.530071-29.944439-86.813919-52.851934-106.17799-44.916659-14.660298-57.917536 12.31465-14.97222 72.166098-4.99074 118.530071z" fill="#DEE3F9" p-id="13332"></path><path d="M547.733697 363.750073h15.296618q204.857394 0 204.857393 204.844917v248.663612q0 204.844917-204.857393 204.844917H547.733697q-204.83244 0-204.844916-204.844917v-248.663612q0-204.83244 204.844916-204.844917z" fill="#D4E0F4" p-id="13333"></path><path d="M513.896481 523.60347a36.706892 36.706892 0 1 0 36.706892-36.706891 36.706892 36.706892 0 0 0-36.706892 36.706891z" fill="#00FFFF" p-id="13334"></path><path d="M179.978555 433.620431c0 72.577834-45.590408 131.431134-101.823569 131.431133S0 506.198265 0 433.620431s21.909348-131.44361 78.154986-131.443611 101.82357 58.8533 101.823569 131.443611z m743.620236 0c0 72.577834 45.590408 131.431134 101.82357 131.431133s78.154986-58.8533 78.154986-131.431133-21.896871-131.44361-78.154986-131.443611-101.82357 58.8533-101.82357 131.443611z" fill="#ECEFFF" p-id="13335"></path><path d="M97.094844 385.534653c0 212.929915 203.572278 385.534653 454.693829 385.534652s454.681353-172.617214 454.681353-385.534652S802.897748 0 551.788673 0 97.094844 172.604737 97.094844 385.534653z" fill="#ECEFFF" p-id="13336"></path><path d="M551.788673 657.405205c-166.104299 0-267.179257-26.525782-318.034896-83.507554-46.81314-52.402768-46.675894-124.768496-46.675894-201.264061v-8.883517c0-94.013062 22.645482-160.015596 71.217857-207.714592 59.040452-57.830198 154.925041-85.94054 293.492933-85.94054 136.683887 0 232.069402 28.110342 291.658837 85.915586 49.146311 47.649089 73.039478 115.647919 73.039477 207.739546 0 9.469929 0 18.952335 0.187153 28.247588 0.723657 72.527927 1.434838 140.9884-46.962862 189.910127-50.980407 51.504435-152.017935 75.497417-317.922605 75.497417z" p-id="13337"></path><path d="M551.788673 649.919095c-163.845989 0-263.124281-25.739741-312.445267-80.999707-44.779413-50.119505-44.779413-120.788381-44.766937-195.599571v-9.569744c0-91.854567 21.909348-156.16025 68.959548-202.3745 57.568184-56.382883 151.855736-83.794522 288.215226-83.794522 134.625207 0 228.326348 27.449069 286.443513 83.806999 47.624135 46.164344 70.768691 112.366507 70.768691 202.362023 0 9.357637 0 19.027196 0.187152 28.409787 0.71118 70.880983 1.38493 137.819281-44.804366 184.482698-49.445755 49.994736-148.773955 73.276538-312.55756 73.276537z" fill="#331083" p-id="13338"></path><path d="M352.857783 354.280144c0 30.45599 10.156156 58.641193 26.638074 73.837996s36.806706 15.234233 53.288625 0 26.638074-43.382006 26.638074-73.837996-10.143679-58.641193-26.638074-73.837996-36.806706-15.234233-53.288625 0-26.638074 43.382006-26.638074 73.837996zM653.612243 354.280144c0 47.08763 23.855736 85.254313 53.288625 85.254314s53.276148-38.166683 53.276147-85.254314-23.84326-85.254313-53.276147-85.254313-53.288625 38.166683-53.288625 85.254313zM588.795009 501.10771a10.493031 10.493031 0 0 0-9.981479 7.573448 29.58261 29.58261 0 0 1-56.507652 0 10.468077 10.468077 0 0 0-9.98148-7.573448h-0.686227a10.318355 10.318355 0 0 0-9.981479 13.138123 50.880593 50.880593 0 0 0 97.656301 0 10.318355 10.318355 0 0 0-9.981479-13.138123z" fill="#00FFFF" p-id="13339"></path><path d="M465.38649 880.017156a89.995516 89.995516 0 1 0 89.983039-89.995516A89.983039 89.983039 0 0 0 465.38649 880.017156z" fill="#5415E8" p-id="13340"></path><path d="M485.586509 880.017156A71.055658 71.055658 0 1 0 521.1081 818.481333a71.118043 71.118043 0 0 0-35.521591 61.535823z" fill="#5415E8" p-id="13341"></path><path d="M529.218052 895.426065l-3.743054 8.097475a9.220392 9.220392 0 0 1-8.334536 5.290185h-9.145531l10.817429-21.522566c3.031874-6.088703 6.13861-12.227313 9.270299-18.453261s5.814212-11.578516 8.097476-16.107612a14.797544 14.797544 0 0 1 13.212983-8.234721H556.467492l1.572083 6.600253 3.743055 15.708354c1.434838 6.238425 2.93206 12.47685 4.391851 18.802612s2.782337 11.628424 3.817916 15.982845a5.814212 5.814212 0 0 1-1.160347 4.990739 5.589629 5.589629 0 0 1-4.566527 2.208403h-7.673263l-2.495369-13.38766z m17.829419-39.040062l-13.375183 28.559508h18.802612z m30.780387 52.527536l8.272152-58.503947a6.61273 6.61273 0 0 1 2.370601-4.292037 6.799883 6.799883 0 0 1 4.566527-1.659421h7.785554l-8.097475 57.480846a8.022614 8.022614 0 0 1-8.022614 7.099328z" fill="#FFFFFF" p-id="13342"></path></svg>